# Blender v2.81 (sub 16) OBJ File: ''
# www.blender.org
o bomb
v -5.783578 0.941287 60.301590
v -4.928652 3.580988 58.665726
v -5.804289 0.941288 57.040958
v -4.948347 -1.790512 55.564590
v -5.793933 -1.882612 58.671223
v -4.908850 -1.790512 61.766865
v -4.908850 1.790488 61.766865
v -3.553666 2.464390 62.925579
v -3.565125 4.268390 61.121517
v -3.580878 4.928790 58.657166
v -3.596531 4.268390 56.192917
v -4.948351 1.790488 55.564590
v -3.607991 2.464390 54.388851
v -3.612185 -0.000012 53.728565
v -3.607990 -2.464411 54.388851
v -3.596526 -4.268412 56.192917
v -4.928648 -3.581012 58.665730
v -3.580873 -4.928812 58.657166
v -3.565120 -4.268412 61.121517
v -3.553661 -2.464411 62.925579
v -3.549467 -0.000012 63.585869
v -1.850636 2.897090 63.664177
v -1.864112 5.017788 61.543419
v -1.882514 5.794088 58.646378
v -1.900916 5.017788 55.749435
v -1.914486 2.897090 53.628681
v -1.919416 -0.000010 52.852394
v -1.914481 -2.897110 53.628681
v -1.900910 -5.017810 55.749435
v -1.882509 -5.794110 58.646378
v -1.864106 -5.017810 61.543419
v -1.850636 -2.897110 63.664177
v -1.845706 -0.000010 64.440361
v 0.027414 4.307890 62.942234
v 0.010062 5.884690 60.211189
v -0.009969 5.884690 57.057652
v -0.027313 4.307890 54.326607
v -0.037328 1.576790 52.749840
v -0.037328 -1.576810 52.749840
v -0.027311 -4.307909 54.326607
v -0.009960 -5.884709 57.057652
v 0.010072 -5.884709 60.211189
v 0.027416 -4.307910 62.942234
v 0.037431 -1.576810 64.519005
v 0.037431 1.576790 64.518997
v 0.033566 -3.046109 63.910416
v 0.019401 -5.276110 61.680458
v 0.000056 -6.092309 58.634422
v -0.019296 -5.276110 55.588383
v -0.033462 -3.046109 53.358425
v -0.038647 -0.000010 52.542244
v -0.033463 3.046090 53.358425
v -0.019298 5.276091 55.588379
v 0.000047 6.092290 58.634418
v 0.019399 5.276091 61.680458
v 0.033565 3.046090 63.910412
v 0.038750 -0.000010 64.726601
v 5.783680 0.941293 56.967247
v 4.928751 3.580993 58.603111
v 5.804392 0.941293 60.227882
v 5.794037 -1.882607 58.597618
v 4.908953 -1.790507 55.501976
v 4.948454 -1.790507 61.704250
v 3.596630 4.268393 61.076023
v 3.608093 2.464392 62.879990
v 4.948450 1.790493 61.704250
v 3.580976 4.928793 58.611671
v 3.565223 4.268393 56.147324
v 3.553764 2.464392 54.343262
v 4.908953 1.790493 55.501976
v 3.549570 -0.000007 53.682972
v 3.553769 -2.464409 54.343262
v 3.565228 -4.268409 56.147324
v 3.580981 -4.928809 58.611675
v 4.928755 -3.581007 58.603111
v 3.596635 -4.268409 61.076023
v 3.608094 -2.464409 62.879990
v 3.612288 -0.000007 63.540276
v 1.901013 5.017791 61.519402
v 1.914584 2.897091 63.640160
v 1.882612 5.794091 58.622459
v 1.864209 5.017791 55.725418
v 1.850739 2.897091 53.604664
v 1.845809 -0.000009 52.828480
v 1.850739 -2.897109 53.604664
v 1.864215 -5.017807 55.725422
v 1.882617 -5.794107 58.622463
v 1.901019 -5.017807 61.519405
v 1.914589 -2.897109 63.640160
v 1.919519 -0.000009 64.416443
v -1.131100 2.348400 -0.782000
v -1.131100 2.348420 -63.530499
v -2.038100 1.625120 -63.530499
v -2.038100 1.625100 -0.782000
v -2.541500 0.579820 -63.530499
v -2.541500 0.579800 -0.782000
v -2.541500 -0.580380 -63.530499
v -2.541500 -0.580400 -0.782000
v -2.038100 -1.625680 -63.530499
v -2.038100 -1.625700 -0.782000
v -1.131100 -2.348980 -63.530499
v -1.131100 -2.349000 -0.782000
v 0.000000 -2.607180 -63.530499
v 0.000000 -2.607200 -0.782000
v 1.131100 -2.348980 -63.530499
v 1.131100 -2.349000 -0.782000
v 2.038200 -1.625680 -63.530499
v 2.038200 -1.625700 -0.782000
v 2.541500 -0.580380 -63.530499
v 2.541500 -0.580400 -0.782000
v 2.541500 0.579820 -63.530499
v 2.541500 0.579800 -0.782000
v 2.038200 1.625120 -63.530499
v 2.038200 1.625100 -0.782000
v 1.131100 2.348420 -63.530499
v 1.131100 2.348400 -0.782000
v 0.000000 2.606620 -63.530499
v 0.000000 2.606600 -0.782000
v 0.000000 -0.000280 -63.530499
v 0.000000 -0.000320 63.530499
v -1.131100 2.348384 51.330200
v -2.038100 1.625084 51.330200
v -2.541500 0.579784 51.330200
v -2.541500 -0.580416 51.330200
v -2.038100 -1.625716 51.330200
v -1.131100 -2.349016 51.330200
v 0.000000 -2.607216 51.330200
v 1.131100 -2.349016 51.330200
v 2.038200 -1.625716 51.330200
v 2.541500 -0.580416 51.330200
v 2.541500 0.579784 51.330200
v 2.038200 1.625084 51.330200
v 1.131100 2.348384 51.330200
v 0.000000 2.606584 51.330200
vt 0.649400 0.258700
vt 0.586200 0.222200
vt 0.649500 0.190900
vt 0.720400 0.146600
vt 0.722900 0.223300
vt 0.719400 0.299900
vt 0.626500 0.298400
vt 0.608300 0.342300
vt 0.557000 0.293800
vt 0.543300 0.221900
vt 0.557900 0.150100
vt 0.627500 0.146600
vt 0.610000 0.102500
vt 0.674000 0.087900
vt 0.737900 0.102500
vt 0.790100 0.151100
vt 0.761500 0.223600
vt 0.804100 0.223900
vt 0.789200 0.296500
vt 0.736200 0.344300
vt 0.672000 0.357900
vt 0.567700 0.359900
vt 0.523100 0.315500
vt 0.494000 0.221600
vt 0.524400 0.128000
vt 0.569600 0.084200
vt 0.681000 0.053700
vt 0.770000 0.083000
vt 0.823800 0.129300
vt 0.853400 0.224200
vt 0.822500 0.318800
vt 0.768000 0.364300
vt 0.678600 0.392100
vt 0.491000 0.352800
vt 0.450900 0.262200
vt 0.451400 0.180300
vt 0.492900 0.090300
vt 0.628800 0.016600
vt 0.725700 0.022800
vt 0.844400 0.084300
vt 0.896500 0.183600
vt 0.896000 0.265400
vt 0.842400 0.364000
vt 0.722800 0.423800
vt 0.625700 0.428500
vt 0.772100 0.405500
vt 0.887400 0.303500
vt 0.899100 0.224500
vt 0.888500 0.145400
vt 0.774800 0.041800
vt 0.701200 0.014600
vt 0.547300 0.049500
vt 0.460000 0.142300
vt 0.448300 0.221200
vt 0.458900 0.300400
vt 0.544800 0.394300
vt 0.698200 0.431500
vt 0.646700 0.631200
vt 0.583400 0.662500
vt 0.646600 0.699000
vt 0.720100 0.663600
vt 0.717600 0.586900
vt 0.716600 0.740200
vt 0.554200 0.734100
vt 0.605500 0.782600
vt 0.623700 0.738700
vt 0.540500 0.662200
vt 0.555100 0.590400
vt 0.607200 0.542800
vt 0.624700 0.586900
vt 0.671200 0.528200
vt 0.735100 0.542800
vt 0.787400 0.591400
vt 0.801300 0.664200
vt 0.758700 0.663900
vt 0.786400 0.736800
vt 0.733400 0.784600
vt 0.669200 0.798200
vt 0.520300 0.755800
vt 0.564900 0.800200
vt 0.491200 0.661900
vt 0.521600 0.568300
vt 0.566800 0.524500
vt 0.678300 0.494000
vt 0.767200 0.523300
vt 0.821000 0.569600
vt 0.850600 0.664500
vt 0.819700 0.759100
vt 0.765200 0.804600
vt 0.675800 0.832400
vt 0.488200 0.793100
vt 0.448100 0.702500
vt 0.448600 0.620700
vt 0.490100 0.530600
vt 0.626000 0.456900
vt 0.722900 0.463100
vt 0.841600 0.524600
vt 0.893700 0.623900
vt 0.893200 0.705700
vt 0.839600 0.804400
vt 0.720000 0.864100
vt 0.622900 0.868800
vt 0.769300 0.845800
vt 0.884600 0.743800
vt 0.896300 0.664800
vt 0.885700 0.585700
vt 0.772000 0.482100
vt 0.698400 0.454900
vt 0.544500 0.489800
vt 0.457200 0.582600
vt 0.445500 0.661600
vt 0.456100 0.740700
vt 0.542000 0.834600
vt 0.695400 0.871800
vt 0.240600 0.990600
vt 0.240600 0.014300
vt 0.254800 0.014300
vt 0.254800 0.990600
vt 0.269000 0.014300
vt 0.269000 0.990600
vt 0.283300 0.014300
vt 0.283300 0.990600
vt 0.297500 0.014300
vt 0.297500 0.990600
vt 0.311700 0.014300
vt 0.311700 0.990600
vt 0.325900 0.014300
vt 0.325900 0.990600
vt 0.340100 0.014300
vt 0.340100 0.990600
vt 0.354400 0.014300
vt 0.354400 0.990600
vt 0.368600 0.014300
vt 0.368600 0.990600
vt 0.382800 0.014300
vt 0.382800 0.990600
vt 0.397000 0.014300
vt 0.397000 0.990600
vt 0.411200 0.014300
vt 0.411200 0.990600
vt 0.425400 0.014300
vt 0.425400 0.990600
vt 0.439700 0.014300
vt 0.439700 0.990600
vt 0.089400 0.087900
vt 0.148200 0.134800
vt 0.122000 0.155700
vt 0.162700 0.104700
vt 0.162700 0.071200
vt 0.148200 0.041100
vt 0.122000 0.020200
vt 0.089400 0.012700
vt 0.056700 0.020200
vt 0.030600 0.041100
vt 0.016100 0.071200
vt 0.016100 0.104700
vt 0.030600 0.134800
vt 0.056700 0.155700
vt 0.089400 0.163100
vt 0.759200 0.445400
vt 0.954600 0.317900
vt 0.959700 0.330600
vt 0.967100 0.349000
vt 0.975300 0.369300
vt 0.982600 0.387700
vt 0.986900 0.400500
vt 0.988300 0.422000
vt 0.990400 0.443300
vt 0.991600 0.460300
vt 0.987200 0.479700
vt 0.982900 0.501200
vt 0.979000 0.520600
vt 0.975500 0.533600
vt 0.964700 0.552300
vt 0.954900 0.571200
vt 0.016800 0.984100
vt 0.016800 0.173400
vt 0.031000 0.173400
vt 0.031000 0.984100
vt 0.045300 0.173400
vt 0.045300 0.984100
vt 0.059500 0.173400
vt 0.059500 0.984100
vt 0.073700 0.173400
vt 0.073700 0.984100
vt 0.087900 0.173400
vt 0.087900 0.984100
vt 0.102100 0.173400
vt 0.102100 0.984100
vt 0.116400 0.173400
vt 0.116400 0.984100
vt 0.130600 0.173400
vt 0.130600 0.984100
vt 0.144800 0.173400
vt 0.144800 0.984100
vt 0.159000 0.173400
vt 0.159000 0.984100
vt 0.173200 0.173400
vt 0.173200 0.984100
vt 0.187400 0.173400
vt 0.187400 0.984100
vt 0.201700 0.173400
vt 0.201700 0.984100
vt 0.215900 0.173400
vt 0.215900 0.984100
vn -0.9671 0.1246 0.2219
vn -0.8438 0.5366 0.0054
vn -0.9698 0.1246 -0.2096
vn -0.8468 -0.2683 -0.4593
vn -0.9684 -0.2492 0.0062
vn -0.8409 -0.2683 0.4701
vn -0.8173 0.2858 0.5003
vn -0.5403 0.4192 0.7296
vn -0.6353 0.6670 0.3892
vn -0.5449 0.8385 0.0035
vn -0.6402 0.6670 -0.3810
vn -0.8236 0.2858 -0.4899
vn -0.5495 0.4192 -0.7227
vn -0.6427 -0.0000 -0.7661
vn -0.5495 -0.4192 -0.7227
vn -0.6402 -0.6670 -0.3811
vn -0.8202 -0.5721 0.0052
vn -0.5449 -0.8385 0.0035
vn -0.6353 -0.6670 0.3892
vn -0.5403 -0.4192 0.7296
vn -0.6329 0.0000 0.7742
vn -0.2876 0.4781 0.8299
vn -0.3311 0.8162 0.4734
vn -0.2928 0.9562 0.0019
vn -0.3371 0.8162 -0.4692
vn -0.2980 0.4781 -0.8262
vn -0.3401 -0.0000 -0.9404
vn -0.2980 -0.4781 -0.8262
vn -0.3372 -0.8162 -0.4692
vn -0.2928 -0.9562 0.0019
vn -0.3311 -0.8162 0.4734
vn -0.2876 -0.4781 0.8299
vn -0.3281 0.0000 0.9446
vn 0.0045 0.7071 0.7071
vn 0.0016 0.9659 0.2588
vn -0.0016 0.9659 -0.2588
vn -0.0045 0.7071 -0.7071
vn -0.0061 0.2588 -0.9659
vn -0.0061 -0.2588 -0.9659
vn -0.0045 -0.7071 -0.7071
vn -0.0016 -0.9659 -0.2588
vn 0.0016 -0.9659 0.2588
vn 0.0045 -0.7071 0.7071
vn 0.0061 -0.2588 0.9659
vn 0.0061 0.2588 0.9659
vn 0.0055 -0.5000 0.8660
vn 0.0032 -0.8660 0.5000
vn 0.0000 -1.0000 0.0000
vn -0.0032 -0.8660 -0.5000
vn -0.0055 -0.5000 -0.8660
vn -0.0063 -0.0000 -1.0000
vn -0.0055 0.5000 -0.8660
vn -0.0032 0.8660 -0.5000
vn -0.0000 1.0000 -0.0000
vn 0.0032 0.8660 0.5000
vn 0.0055 0.5000 0.8660
vn 0.0063 0.0000 1.0000
vn 0.9671 0.1246 -0.2219
vn 0.8438 0.5366 -0.0054
vn 0.9698 0.1246 0.2096
vn 0.9684 -0.2492 -0.0062
vn 0.8409 -0.2683 -0.4701
vn 0.8468 -0.2683 0.4593
vn 0.6403 0.6670 0.3810
vn 0.5495 0.4192 0.7227
vn 0.8236 0.2858 0.4899
vn 0.5449 0.8385 -0.0035
vn 0.6353 0.6670 -0.3892
vn 0.5403 0.4192 -0.7296
vn 0.8173 0.2858 -0.5003
vn 0.6329 0.0000 -0.7742
vn 0.5403 -0.4192 -0.7296
vn 0.6353 -0.6670 -0.3892
vn 0.5449 -0.8385 -0.0035
vn 0.8201 -0.5723 -0.0052
vn 0.6403 -0.6670 0.3810
vn 0.5495 -0.4192 0.7227
vn 0.6427 -0.0000 0.7661
vn 0.3371 0.8162 0.4692
vn 0.2980 0.4781 0.8262
vn 0.2928 0.9562 -0.0019
vn 0.3311 0.8162 -0.4734
vn 0.2876 0.4781 -0.8299
vn 0.3281 0.0000 -0.9446
vn 0.2876 -0.4781 -0.8299
vn 0.3311 -0.8162 -0.4734
vn 0.2928 -0.9562 -0.0019
vn 0.3371 -0.8162 0.4692
vn 0.2980 -0.4781 0.8262
vn 0.3401 0.0000 0.9404
vn -0.5010 0.8655 0.0000
vn -0.3643 0.9313 0.0000
vn -0.7323 0.6810 0.0000
vn -0.8269 0.5624 0.0000
vn -0.9552 0.2958 0.0000
vn -0.9890 0.1479 0.0000
vn -0.9890 -0.1479 -0.0000
vn -0.9552 -0.2958 0.0000
vn -0.8269 -0.5624 -0.0000
vn -0.7323 -0.6810 -0.0000
vn -0.5010 -0.8655 -0.0000
vn -0.3643 -0.9313 -0.0000
vn -0.0759 -0.9971 -0.0000
vn 0.0759 -0.9971 -0.0000
vn 0.3643 -0.9313 -0.0000
vn 0.5010 -0.8655 -0.0000
vn 0.7323 -0.6810 -0.0000
vn 0.8269 -0.5624 -0.0000
vn 0.9552 -0.2958 -0.0000
vn 0.9890 -0.1479 0.0000
vn 0.9890 0.1479 -0.0000
vn 0.9552 0.2958 -0.0000
vn 0.8269 0.5624 0.0000
vn 0.7323 0.6810 0.0000
vn 0.5010 0.8655 0.0000
vn 0.3643 0.9313 0.0000
vn 0.0759 0.9971 0.0000
vn -0.0759 0.9971 0.0000
vn 0.0000 0.0000 -1.0000
vn 0.0000 0.0000 1.0000
vn -0.4243 0.8811 0.2090
vn -0.7646 0.6097 0.2090
vn -0.9534 0.2176 0.2090
vn -0.9534 -0.2176 0.2090
vn -0.7646 -0.6097 0.2090
vn -0.4243 -0.8811 0.2090
vn 0.0000 -0.9779 0.2090
vn 0.4243 -0.8811 0.2090
vn 0.7646 -0.6097 0.2090
vn 0.9534 -0.2176 0.2090
vn 0.9534 0.2176 0.2090
vn 0.7646 0.6097 0.2090
vn 0.4243 0.8811 0.2090
vn 0.0000 0.9779 0.2090
vn 0.5010 -0.8654 0.0000
vn 0.9553 -0.2958 0.0001
vn 0.9890 0.1479 -0.0001
vn 0.9553 0.2958 0.0001
vn 0.5010 0.8654 0.0000
s 1
f 1/1/1 2/2/2 3/3/3
f 3/3/3 4/4/4 5/5/5
f 5/5/5 6/6/6 1/1/1
f 7/7/7 8/8/8 9/9/9
f 2/2/2 9/9/9 10/10/10
f 2/2/2 10/10/10 11/11/11
f 12/12/12 11/11/11 13/13/13
f 12/12/12 13/13/13 14/14/14
f 4/4/4 14/14/14 15/15/15
f 4/4/4 15/15/15 16/16/16
f 17/17/17 16/16/16 18/18/18
f 17/17/17 18/18/18 19/19/19
f 6/6/6 19/19/19 20/20/20
f 6/6/6 20/20/20 21/21/21
f 21/21/21 8/8/8 7/7/7
f 8/8/8 22/22/22 23/23/23
f 8/8/8 23/23/23 9/9/9
f 23/23/23 24/24/24 10/10/10
f 9/9/9 23/23/23 10/10/10
f 10/10/10 24/24/24 25/25/25
f 10/10/10 25/25/25 11/11/11
f 25/25/25 26/26/26 13/13/13
f 11/11/11 25/25/25 13/13/13
f 13/13/13 26/26/26 27/27/27
f 13/13/13 27/27/27 14/14/14
f 27/27/27 28/28/28 15/15/15
f 14/14/14 27/27/27 15/15/15
f 15/15/15 28/28/28 29/29/29
f 15/15/15 29/29/29 16/16/16
f 29/29/29 30/30/30 18/18/18
f 16/16/16 29/29/29 18/18/18
f 18/18/18 30/30/30 31/31/31
f 18/18/18 31/31/31 19/19/19
f 31/31/31 32/32/32 20/20/20
f 19/19/19 31/31/31 20/20/20
f 20/20/20 32/32/32 33/33/33
f 20/20/20 33/33/33 21/21/21
f 33/33/33 22/22/22 8/8/8
f 33/33/33 8/8/8 21/21/21
f 22/22/22 34/34/34 23/23/23
f 23/23/23 35/35/35 24/24/24
f 24/24/24 36/36/36 25/25/25
f 25/25/25 37/37/37 26/26/26
f 26/26/26 38/38/38 27/27/27
f 27/27/27 39/39/39 28/28/28
f 28/28/28 40/40/40 29/29/29
f 29/29/29 41/41/41 30/30/30
f 30/30/30 42/42/42 31/31/31
f 31/31/31 43/43/43 32/32/32
f 32/32/32 44/44/44 33/33/33
f 33/33/33 45/45/45 22/22/22
f 1/1/1 3/3/3 5/5/5
f 44/44/44 32/32/32 46/46/46
f 32/32/32 43/43/43 46/46/46
f 43/43/43 31/31/31 47/47/47
f 31/31/31 42/42/42 47/47/47
f 42/42/42 30/30/30 48/48/48
f 30/30/30 41/41/41 48/48/48
f 41/41/41 29/29/29 49/49/49
f 29/29/29 40/40/40 49/49/49
f 40/40/40 28/28/28 50/50/50
f 28/28/28 39/39/39 50/50/50
f 39/39/39 27/27/27 51/51/51
f 27/27/27 38/38/38 51/51/51
f 38/38/38 26/26/26 52/52/52
f 26/26/26 37/37/37 52/52/52
f 37/37/37 25/25/25 53/53/53
f 25/25/25 36/36/36 53/53/53
f 36/36/36 24/24/24 54/54/54
f 24/24/24 35/35/35 54/54/54
f 35/35/35 23/23/23 55/55/55
f 23/23/23 34/34/34 55/55/55
f 34/34/34 22/22/22 56/56/56
f 22/22/22 45/45/45 56/56/56
f 45/45/45 33/33/33 57/57/57
f 33/33/33 44/44/44 57/57/57
f 6/6/6 21/21/21 7/7/7
f 7/7/7 9/9/9 2/2/2
f 2/2/2 11/11/11 12/12/12
f 12/12/12 14/14/14 4/4/4
f 4/4/4 16/16/16 17/17/17
f 17/17/17 19/19/19 6/6/6
f 5/5/5 4/4/4 17/17/17
f 12/12/12 4/4/4 3/3/3
f 3/3/3 2/2/2 12/12/12
f 7/7/7 2/2/2 1/1/1
f 1/1/1 6/6/6 7/7/7
f 17/17/17 6/6/6 5/5/5
f 58/58/58 59/59/59 60/60/60
f 61/61/61 62/62/62 58/58/58
f 60/60/60 63/63/63 61/61/61
f 64/64/64 65/65/65 66/66/66
f 67/67/67 64/64/64 59/59/59
f 68/68/68 67/67/67 59/59/59
f 69/69/69 68/68/68 70/70/70
f 71/71/71 69/69/69 70/70/70
f 72/72/72 71/71/71 62/62/62
f 73/73/73 72/72/72 62/62/62
f 74/74/74 73/73/73 75/75/75
f 76/76/76 74/74/74 75/75/75
f 77/77/77 76/76/76 63/63/63
f 78/78/78 77/77/77 63/63/63
f 66/66/66 65/65/65 78/78/78
f 79/79/79 80/80/80 65/65/65
f 79/79/79 65/65/65 64/64/64
f 67/67/67 81/81/81 79/79/79
f 67/67/67 79/79/79 64/64/64
f 82/82/82 81/81/81 67/67/67
f 82/82/82 67/67/67 68/68/68
f 69/69/69 83/83/83 82/82/82
f 69/69/69 82/82/82 68/68/68
f 84/84/84 83/83/83 69/69/69
f 84/84/84 69/69/69 71/71/71
f 72/72/72 85/85/85 84/84/84
f 72/72/72 84/84/84 71/71/71
f 86/86/86 85/85/85 72/72/72
f 86/86/86 72/72/72 73/73/73
f 74/74/74 87/87/87 86/86/86
f 74/74/74 86/86/86 73/73/73
f 88/88/88 87/87/87 74/74/74
f 88/88/88 74/74/74 76/76/76
f 77/77/77 89/89/89 88/88/88
f 77/77/77 88/88/88 76/76/76
f 90/90/90 89/89/89 77/77/77
f 90/90/90 77/77/77 78/78/78
f 65/65/65 80/80/80 90/90/90
f 65/65/65 90/90/90 78/78/78
f 79/79/79 34/91/34 80/80/80
f 81/81/81 35/92/35 79/79/79
f 82/82/82 36/93/36 81/81/81
f 83/83/83 37/94/37 82/82/82
f 84/84/84 38/95/38 83/83/83
f 85/85/85 39/96/39 84/84/84
f 86/86/86 40/97/40 85/85/85
f 87/87/87 41/98/41 86/86/86
f 88/88/88 42/99/42 87/87/87
f 89/89/89 43/100/43 88/88/88
f 90/90/90 44/101/44 89/89/89
f 80/80/80 45/102/45 90/90/90
f 61/61/61 58/58/58 60/60/60
f 46/103/46 89/89/89 44/101/44
f 46/103/46 43/100/43 89/89/89
f 47/104/47 88/88/88 43/100/43
f 47/104/47 42/99/42 88/88/88
f 48/105/48 87/87/87 42/99/42
f 48/105/48 41/98/41 87/87/87
f 49/106/49 86/86/86 41/98/41
f 49/106/49 40/97/40 86/86/86
f 50/107/50 85/85/85 40/97/40
f 50/107/50 39/96/39 85/85/85
f 51/108/51 84/84/84 39/96/39
f 51/108/51 38/95/38 84/84/84
f 52/109/52 83/83/83 38/95/38
f 52/109/52 37/94/37 83/83/83
f 53/110/53 82/82/82 37/94/37
f 53/110/53 36/93/36 82/82/82
f 54/111/54 81/81/81 36/93/36
f 54/111/54 35/92/35 81/81/81
f 55/112/55 79/79/79 35/92/35
f 55/112/55 34/91/34 79/79/79
f 56/113/56 80/80/80 34/91/34
f 56/113/56 45/102/45 80/80/80
f 57/114/57 90/90/90 45/102/45
f 57/114/57 44/101/44 90/90/90
f 66/66/66 78/78/78 63/63/63
f 59/59/59 64/64/64 66/66/66
f 70/70/70 68/68/68 59/59/59
f 62/62/62 71/71/71 70/70/70
f 75/75/75 73/73/73 62/62/62
f 63/63/63 76/76/76 75/75/75
f 75/75/75 62/62/62 61/61/61
f 58/58/58 62/62/62 70/70/70
f 70/70/70 59/59/59 58/58/58
f 60/60/60 59/59/59 66/66/66
f 66/66/66 63/63/63 60/60/60
f 61/61/61 63/63/63 75/75/75
f 91/115/91 92/116/92 93/117/93
f 91/115/91 93/117/93 94/118/94
f 94/118/94 93/117/93 95/119/95
f 94/118/94 95/119/95 96/120/96
f 96/120/96 95/119/95 97/121/97
f 96/120/96 97/121/97 98/122/98
f 98/122/98 97/121/97 99/123/99
f 98/122/98 99/123/99 100/124/100
f 100/124/100 99/123/99 101/125/101
f 100/124/100 101/125/101 102/126/102
f 102/126/102 101/125/101 103/127/103
f 102/126/102 103/127/103 104/128/104
f 104/128/104 103/127/103 105/129/105
f 104/128/104 105/129/105 106/130/106
f 106/130/106 105/129/105 107/131/107
f 106/130/106 107/131/107 108/132/108
f 108/132/108 107/131/107 109/133/109
f 108/132/108 109/133/109 110/134/110
f 110/134/110 109/133/109 111/135/111
f 110/134/110 111/135/111 112/136/112
f 112/136/112 111/135/111 113/137/113
f 112/136/112 113/137/113 114/138/114
f 114/138/114 113/137/113 115/139/115
f 114/138/114 115/139/115 116/140/116
f 116/140/116 115/139/115 117/141/117
f 116/140/116 117/141/117 118/142/118
f 118/142/118 117/141/117 92/143/92
f 118/142/118 92/143/92 91/144/91
f 119/145/119 93/146/119 92/147/119
f 119/145/119 95/148/119 93/146/119
f 119/145/119 97/149/119 95/148/119
f 119/145/119 99/150/119 97/149/119
f 119/145/119 101/151/119 99/150/119
f 119/145/119 103/152/119 101/151/119
f 119/145/119 105/153/119 103/152/119
f 119/145/119 107/154/119 105/153/119
f 119/145/119 109/155/119 107/154/119
f 119/145/119 111/156/119 109/155/119
f 119/145/119 113/157/119 111/156/119
f 119/145/119 115/158/119 113/157/119
f 119/145/119 117/159/119 115/158/119
f 119/145/119 92/147/119 117/159/119
f 120/160/120 121/161/121 122/162/122
f 120/160/120 122/162/122 123/163/123
f 120/160/120 123/163/123 124/164/124
f 120/160/120 124/164/124 125/165/125
f 120/160/120 125/165/125 126/166/126
f 120/160/120 126/166/126 127/167/127
f 120/160/120 127/167/127 128/168/128
f 120/160/120 128/168/128 129/169/129
f 120/160/120 129/169/129 130/170/130
f 120/160/120 130/170/130 131/171/131
f 120/160/120 131/171/131 132/172/132
f 120/160/120 132/172/132 133/173/133
f 120/160/120 133/173/133 134/174/134
f 120/160/120 134/174/134 121/175/121
f 121/176/91 91/177/92 94/178/93
f 121/176/91 94/178/93 122/179/94
f 122/179/94 94/178/93 96/180/95
f 122/179/94 96/180/95 123/181/96
f 123/181/96 96/180/95 98/182/97
f 123/181/96 98/182/97 124/183/98
f 124/183/98 98/182/97 100/184/99
f 124/183/98 100/184/99 125/185/100
f 125/185/100 100/184/99 102/186/101
f 125/185/100 102/186/101 126/187/102
f 126/187/102 102/186/101 104/188/103
f 126/187/102 104/188/103 127/189/104
f 127/189/104 104/188/103 106/190/105
f 127/189/104 106/190/105 128/191/135
f 128/191/135 106/190/105 108/192/107
f 128/191/135 108/192/107 129/193/108
f 129/193/108 108/192/107 110/194/136
f 129/193/108 110/194/136 130/195/110
f 130/195/110 110/194/136 112/196/137
f 130/195/110 112/196/137 131/197/138
f 131/197/138 112/196/137 114/198/113
f 131/197/138 114/198/113 132/199/114
f 132/199/114 114/198/113 116/200/139
f 132/199/114 116/200/139 133/201/116
f 133/201/116 116/200/139 118/202/117
f 133/201/116 118/202/117 134/203/118
f 134/203/118 118/202/117 91/204/92
f 134/203/118 91/204/92 121/205/91
