# 3ds Max Wavefront OBJ Exporter v0.97b - (c)2007 guruware
# File Created: 14.01.2021 01:33:33

#
# object pCylinderShape1
#

v  0.7863 0.4921 -16.1316
v  0.4261 0.8523 -16.1316
v  0.4261 0.8523 13.4711
v  0.7863 0.4921 13.4711
v  -0.0659 0.9841 -16.1316
v  -0.0659 0.9841 13.4711
v  -0.5580 0.8523 -16.1316
v  -0.5580 0.8523 13.4711
v  -0.9182 0.4921 -16.1316
v  -0.9182 0.4921 13.4711
v  -0.9182 -0.4921 -16.1316
v  -0.9182 -0.4921 13.4711
v  -0.5580 -0.8523 -16.1316
v  -0.0633 -0.8815 13.5112
v  -0.0659 -0.9841 -16.1316
v  0.4261 -0.8523 -16.1316
v  0.3736 -0.7645 13.5112
v  0.7863 -0.4921 13.4711
v  0.7863 -0.4921 -16.1316
v  0.9182 0.0000 -16.1316
v  0.9182 0.0000 13.4711
v  -0.0659 0.0000 -16.0015
v  0.3119 0.6421 14.1449
v  0.5866 0.3674 14.1449
v  -0.0633 0.7426 14.1449
v  -0.4385 0.6421 14.1449
v  -0.7131 0.3674 14.1449
v  -0.7590 -0.2119 14.1449
v  -0.7720 0.1477 14.1449
v  -0.7131 -0.3830 14.1449
v  -0.0633 -0.7582 14.1449
v  0.6871 -0.0078 14.1449
v  0.5866 -0.3830 14.1449
v  0.4158 0.3124 14.9392
v  0.2122 0.5160 14.9392
v  -0.5476 0.3124 14.9392
v  -0.3440 0.5160 14.9392
v  -0.6222 0.0343 14.9392
v  -0.5476 -0.2439 14.9392
v  -0.0659 -0.5220 14.9392
v  0.4158 -0.2439 14.9392
v  0.4903 0.0343 14.9392
v  -0.0659 0.0000 16.1316
# 43 vertices

vn 0.8181 0.5751 -0.0000
vn 0.4210 0.9071 -0.0000
vn 0.5416 0.8296 0.1358
vn 0.8550 0.4907 0.1680
vn -0.0890 0.9960 -0.0000
vn 0.0877 0.9814 0.1708
vn -0.5751 0.8181 -0.0000
vn -0.4148 0.8937 0.1712
vn -0.9239 0.3827 -0.0000
vn -0.9187 0.3570 0.1691
vn -0.9675 -0.2527 -0.0000
vn -0.8400 -0.5197 0.1559
vn -0.4714 -0.8819 0.0032
vn -0.1881 -0.9758 0.1114
vn 0.0890 -0.9960 0.0034
vn 0.5176 -0.8556 0.0023
vn 0.3990 -0.9063 0.1393
vn 0.8203 -0.5481 0.1632
vn 0.9071 -0.4210 -0.0000
vn 0.9960 0.0890 -0.0000
vn 0.9863 -0.0024 0.1652
vn -0.0102 -0.0000 -0.9999
vn -0.0655 -0.1135 -0.9914
vn -0.1135 -0.0655 -0.9914
vn 0.0000 -0.1310 -0.9914
vn 0.0655 -0.1135 -0.9914
vn 0.1235 -0.0480 -0.9912
vn 0.1235 0.0480 -0.9912
vn 0.0655 0.1135 -0.9914
vn 0.0000 0.1310 -0.9914
vn -0.0655 0.1135 -0.9914
vn -0.1135 0.0655 -0.9914
vn -0.1310 -0.0000 -0.9914
vn 0.5126 0.8128 0.2769
vn 0.8724 0.4051 0.2737
vn -0.0419 0.9597 0.2778
vn -0.5542 0.7886 0.2662
vn -0.8329 0.4811 0.2735
vn -0.9621 -0.1376 0.2355
vn -0.9639 0.1375 0.2279
vn -0.6658 -0.6972 0.2656
vn 0.0521 -0.9628 0.2650
vn 0.9552 -0.0851 0.2834
vn 0.6807 -0.6692 0.2980
vn 0.7980 0.5215 0.3022
vn 0.3383 0.8868 0.3148
vn -0.8296 0.4792 0.2866
vn -0.3385 0.8872 0.3135
vn -0.9539 -0.0073 0.3001
vn -0.7969 -0.5129 0.3192
vn -0.0001 -0.9459 0.3245
vn 0.7960 -0.5124 0.3223
vn 0.9486 0.0523 0.3120
vn 0.0000 0.1577 0.9875
# 54 vertex normals

vt 0.3650 0.0021 0.0000
vt 0.4032 0.0021 0.0000
vt 0.4032 0.9988 0.0000
vt 0.3650 0.9988 0.0000
vt 0.4403 0.0021 0.0000
vt 0.4403 0.9988 0.0000
vt 0.0018 0.0021 0.0000
vt 0.0376 0.0021 0.0000
vt 0.0376 0.9988 0.0000
vt 0.0018 0.9988 0.0000
vt 0.0724 0.0021 0.0000
vt 0.0724 0.9988 0.0000
vt 0.1411 0.0021 0.0000
vt 0.1411 0.9988 0.0000
vt 0.1759 0.0021 0.0000
vt 0.2114 0.9988 0.0000
vt 0.2117 0.0021 0.0000
vt 0.2487 0.0021 0.0000
vt 0.2481 0.9988 0.0000
vt 0.2870 0.9988 0.0000
vt 0.2870 0.0021 0.0000
vt 0.3260 0.0021 0.0000
vt 0.3260 0.9988 0.0000
vt 0.7735 0.0610 0.0000
vt 0.8741 0.0918 0.0000
vt 0.8316 0.1144 0.0000
vt 0.8897 0.0610 0.0000
vt 0.8741 0.0302 0.0000
vt 0.8316 0.0076 0.0000
vt 0.7154 0.0076 0.0000
vt 0.6728 0.0302 0.0000
vt 0.6573 0.0610 0.0000
vt 0.6728 0.0918 0.0000
vt 0.7154 0.1144 0.0000
vt 0.7735 0.1227 0.0000
vt 0.5427 0.2724 0.0000
vt 0.5427 0.2505 0.0000
vt 0.5927 0.2435 0.0000
vt 0.5927 0.2603 0.0000
vt 0.5427 0.2205 0.0000
vt 0.5927 0.2207 0.0000
vt 0.5427 0.1905 0.0000
vt 0.5927 0.1978 0.0000
vt 0.5427 0.1686 0.0000
vt 0.5927 0.1811 0.0000
vt 0.5427 0.1086 0.0000
vt 0.5927 0.1257 0.0000
vt 0.5927 0.1476 0.0000
vt 0.5927 0.1153 0.0000
vt 0.5927 0.4238 0.0000
vt 0.5427 0.4363 0.0000
vt 0.5456 0.3842 0.0000
vt 0.5927 0.3842 0.0000
vt 0.5427 0.3324 0.0000
vt 0.5427 0.3024 0.0000
vt 0.5927 0.3029 0.0000
vt 0.5927 0.3258 0.0000
vt 0.5927 0.2800 0.0000
vt 0.6516 0.2499 0.0000
vt 0.6516 0.2375 0.0000
vt 0.6516 0.1912 0.0000
vt 0.6516 0.2036 0.0000
vt 0.6516 0.1407 0.0000
vt 0.6516 0.1238 0.0000
vt 0.6516 0.3843 0.0000
vt 0.6516 0.4137 0.0000
vt 0.6516 0.3173 0.0000
vt 0.6516 0.3003 0.0000
vt 0.6516 0.2834 0.0000
vt 0.7401 0.2205 0.0000
vt 0.7401 0.1386 0.0000
vt 0.6516 0.1577 0.0000
vt 0.7401 0.3843 0.0000
vt 0.6516 0.3550 0.0000
vt 0.5927 0.3446 0.0000
vt 0.5456 0.3576 0.0000
vt 0.7401 0.3024 0.0000
vt 0.5927 0.1610 0.0000
# 78 texture coords

g pCylinderShape1
s 1
f 1/1/1 2/2/2 3/3/3 
f 1/1/1 3/3/3 4/4/4 
f 2/2/2 5/5/5 6/6/6 
f 2/2/2 6/6/6 3/3/3 
f 5/7/5 7/8/7 8/9/8 
f 5/7/5 8/9/8 6/10/6 
f 7/8/7 9/11/9 10/12/10 
f 7/8/7 10/12/10 8/9/8 
f 11/13/11 12/14/12 10/12/10 
f 9/11/9 11/13/11 10/12/10 
f 12/14/12 13/15/13 14/16/14 
f 13/15/13 12/14/12 11/13/11 
f 15/17/15 16/18/16 17/19/17 
f 15/17/15 17/19/17 14/16/14 
f 18/20/18 17/19/17 16/18/16 
f 16/18/16 19/21/19 18/20/18 
f 19/21/19 20/22/20 21/23/21 
f 19/21/19 21/23/21 18/20/18 
f 20/22/20 1/1/1 4/4/4 
f 20/22/20 4/4/4 21/23/21 
f 22/24/22 2/25/23 1/26/24 
f 22/24/22 5/27/25 2/25/23 
f 22/24/22 7/28/26 5/27/25 
f 22/24/22 9/29/27 7/28/26 
f 11/30/28 9/29/27 22/24/22 
f 22/24/22 13/31/29 11/30/28 
f 22/24/22 15/32/30 13/31/29 
f 22/24/22 16/33/31 15/32/30 
f 22/24/22 19/34/32 16/33/31 
f 22/24/22 20/35/33 19/34/32 
f 22/24/22 1/26/24 20/35/33 
f 4/36/4 3/37/3 23/38/34 
f 24/39/35 4/36/4 23/38/34 
f 23/38/34 3/37/3 6/40/6 
f 23/38/34 6/40/6 25/41/36 
f 25/41/36 6/40/6 8/42/8 
f 25/41/36 8/42/8 26/43/37 
f 26/43/37 8/42/8 10/44/10 
f 26/43/37 10/44/10 27/45/38 
f 10/44/10 12/46/12 28/47/39 
f 10/44/10 28/47/39 29/48/40 
f 30/49/41 28/47/39 12/46/12 
f 30/50/41 12/51/12 14/52/14 
f 31/53/42 30/50/41 14/52/14 
f 18/54/18 21/55/21 32/56/43 
f 33/57/44 18/54/18 32/56/43 
f 21/55/21 4/36/4 24/58/35 
f 32/56/43 21/55/21 24/58/35 
f 34/59/45 24/39/35 23/38/34 
f 34/59/45 23/38/34 35/60/46 
f 26/43/37 27/45/38 36/61/47 
f 37/62/48 26/43/37 36/61/47 
f 28/47/39 38/63/49 29/48/40 
f 39/64/50 38/63/49 28/47/39 
f 39/64/50 28/47/39 30/49/41 
f 30/50/41 31/53/42 40/65/51 
f 40/65/51 39/66/50 30/50/41 
f 41/67/52 33/57/44 32/56/43 
f 41/67/52 32/56/43 42/68/53 
f 42/68/53 32/56/43 24/58/35 
f 42/68/53 24/58/35 34/69/45 
f 43/70/54 34/59/45 35/60/46 
f 37/62/48 43/70/54 35/60/46 
f 35/60/46 23/38/34 25/41/36 
f 37/62/48 35/60/46 25/41/36 
f 37/62/48 25/41/36 26/43/37 
f 43/70/54 37/62/48 36/61/47 
f 43/71/54 36/72/47 38/63/49 
f 43/71/54 38/63/49 39/64/50 
f 40/65/51 43/73/54 39/66/50 
f 41/74/52 43/73/54 40/65/51 
f 40/65/51 31/53/42 33/75/44 
f 33/75/44 41/74/52 40/65/51 
f 31/53/42 14/52/14 17/76/17 
f 33/75/44 31/53/42 17/76/17 
f 18/54/18 33/75/44 17/76/17 
f 43/77/54 41/67/52 42/68/53 
f 43/77/54 42/68/53 34/69/45 
f 29/48/40 38/63/49 36/72/47 
f 36/72/47 27/78/38 29/48/40 
f 27/78/38 10/44/10 29/48/40 
f 13/15/13 15/17/15 14/16/14 
# 0 polygons - 82 triangles

