# Blender v2.81 (sub 16) OBJ File: ''
# www.blender.org
o PKstake
v 0.786300 0.492103 -16.131599
v 0.426100 0.852303 -16.131599
v 0.426100 0.852298 13.471100
v 0.786300 0.492098 13.471100
v -0.065900 0.984103 -16.131599
v -0.065900 0.984098 13.471100
v -0.558000 0.852303 -16.131599
v -0.558000 0.852298 13.471100
v -0.918200 0.492103 -16.131599
v -0.918200 0.492098 13.471100
v -0.918200 -0.492097 -16.131599
v -0.918200 -0.492102 13.471100
v -0.558000 -0.852297 -16.131599
v -0.063300 -0.881502 13.511200
v -0.065900 -0.984097 -16.131599
v 0.426100 -0.852297 -16.131599
v 0.373600 -0.764502 13.511200
v 0.786300 -0.492102 13.471100
v 0.786300 -0.492097 -16.131599
v 0.918200 0.000003 -16.131599
v 0.918200 -0.000002 13.471100
v -0.065900 0.000003 -16.001499
v 0.311900 0.642098 14.144900
v 0.586600 0.367398 14.144900
v -0.063300 0.742598 14.144900
v -0.438500 0.642098 14.144900
v -0.713100 0.367398 14.144900
v -0.759000 -0.211902 14.144900
v -0.772000 0.147698 14.144900
v -0.713100 -0.383002 14.144900
v -0.063300 -0.758202 14.144900
v 0.687100 -0.007802 14.144900
v 0.586600 -0.383002 14.144900
v 0.415800 0.312398 14.939200
v 0.212200 0.515998 14.939200
v -0.547600 0.312398 14.939200
v -0.344000 0.515998 14.939200
v -0.622200 0.034298 14.939200
v -0.547600 -0.243902 14.939200
v -0.065900 -0.522002 14.939200
v 0.415800 -0.243902 14.939200
v 0.490300 0.034298 14.939200
v -0.065900 -0.000003 16.131599
vt 0.181633 0.002100
vt 0.200547 0.002100
vt 0.200547 0.998800
vt 0.181633 0.998800
vt 0.218916 0.002100
vt 0.218916 0.998800
vt 0.001800 0.002100
vt 0.019526 0.002100
vt 0.019526 0.998800
vt 0.001800 0.998800
vt 0.036756 0.002100
vt 0.036756 0.998800
vt 0.070772 0.002100
vt 0.070772 0.998800
vt 0.088003 0.002100
vt 0.105580 0.998800
vt 0.105729 0.002100
vt 0.124049 0.002100
vt 0.123752 0.998800
vt 0.143012 0.998800
vt 0.143012 0.002100
vt 0.162322 0.002100
vt 0.162322 0.998800
vt 0.383895 0.061000
vt 0.433706 0.091800
vt 0.412662 0.114400
vt 0.441430 0.061000
vt 0.433706 0.030200
vt 0.412662 0.007600
vt 0.355128 0.007600
vt 0.334035 0.030200
vt 0.326360 0.061000
vt 0.334035 0.091800
vt 0.355128 0.114400
vt 0.383895 0.122700
vt 0.269618 0.272400
vt 0.269618 0.250500
vt 0.294375 0.243500
vt 0.294375 0.260300
vt 0.269618 0.220500
vt 0.294375 0.220700
vt 0.269618 0.190500
vt 0.294375 0.197800
vt 0.269618 0.168600
vt 0.294375 0.181100
vt 0.269618 0.108600
vt 0.294375 0.125700
vt 0.294375 0.147600
vt 0.294375 0.115300
vt 0.294375 0.423800
vt 0.269618 0.436300
vt 0.271054 0.384200
vt 0.294375 0.384200
vt 0.269618 0.332400
vt 0.269618 0.302400
vt 0.294375 0.302900
vt 0.294375 0.325800
vt 0.294375 0.280000
vt 0.323538 0.249900
vt 0.323538 0.237500
vt 0.323538 0.191200
vt 0.323538 0.203600
vt 0.323538 0.140700
vt 0.323538 0.123800
vt 0.323538 0.384300
vt 0.323538 0.413700
vt 0.323538 0.317300
vt 0.323538 0.300300
vt 0.323538 0.283400
vt 0.367358 0.220500
vt 0.367358 0.138600
vt 0.323538 0.157700
vt 0.367358 0.384300
vt 0.323538 0.355000
vt 0.294375 0.344600
vt 0.271054 0.357600
vt 0.367358 0.302400
vt 0.294375 0.161000
vn 0.8181 0.5751 0.0000
vn 0.4210 0.9071 0.0000
vn 0.5416 0.8296 0.1358
vn 0.8550 0.4907 0.1680
vn -0.0890 0.9960 0.0000
vn 0.0877 0.9814 0.1708
vn -0.5751 0.8181 0.0000
vn -0.4148 0.8937 0.1712
vn -0.9239 0.3827 0.0000
vn -0.9187 0.3570 0.1691
vn -0.9675 -0.2527 -0.0001
vn -0.8400 -0.5197 0.1559
vn -0.4714 -0.8819 0.0032
vn -0.1881 -0.9758 0.1114
vn 0.0890 -0.9960 0.0035
vn 0.5176 -0.8556 0.0023
vn 0.3990 -0.9063 0.1393
vn 0.8203 -0.5481 0.1632
vn 0.9071 -0.4210 -0.0000
vn 0.9960 0.0890 0.0000
vn 0.9863 -0.0024 0.1652
vn -0.0102 -0.0000 -0.9999
vn -0.0655 -0.1135 -0.9914
vn -0.1135 -0.0655 -0.9914
vn -0.0000 -0.1311 -0.9914
vn 0.0655 -0.1135 -0.9914
vn 0.1235 -0.0480 -0.9912
vn 0.1235 0.0480 -0.9912
vn 0.0655 0.1135 -0.9914
vn -0.0000 0.1311 -0.9914
vn -0.0655 0.1135 -0.9914
vn -0.1135 0.0655 -0.9914
vn -0.1311 -0.0000 -0.9914
vn 0.5126 0.8128 0.2769
vn 0.8724 0.4051 0.2737
vn -0.0419 0.9597 0.2778
vn -0.5542 0.7887 0.2662
vn -0.8329 0.4811 0.2735
vn -0.9621 -0.1376 0.2355
vn -0.9639 0.1375 0.2279
vn -0.6658 -0.6972 0.2656
vn 0.0521 -0.9628 0.2650
vn 0.9552 -0.0851 0.2834
vn 0.6807 -0.6692 0.2980
vn 0.7980 0.5215 0.3022
vn 0.3383 0.8868 0.3148
vn -0.8296 0.4792 0.2866
vn -0.3385 0.8872 0.3135
vn -0.9539 -0.0073 0.3001
vn -0.7969 -0.5129 0.3192
vn -0.0001 -0.9459 0.3245
vn 0.7960 -0.5124 0.3223
vn 0.9486 0.0523 0.3120
vn 0.0000 0.1577 0.9875
s 1
f 1/1/1 2/2/2 3/3/3
f 1/1/1 3/3/3 4/4/4
f 2/2/2 5/5/5 6/6/6
f 2/2/2 6/6/6 3/3/3
f 5/7/5 7/8/7 8/9/8
f 5/7/5 8/9/8 6/10/6
f 7/8/7 9/11/9 10/12/10
f 7/8/7 10/12/10 8/9/8
f 11/13/11 12/14/12 10/12/10
f 9/11/9 11/13/11 10/12/10
f 12/14/12 13/15/13 14/16/14
f 13/15/13 12/14/12 11/13/11
f 15/17/15 16/18/16 17/19/17
f 15/17/15 17/19/17 14/16/14
f 18/20/18 17/19/17 16/18/16
f 16/18/16 19/21/19 18/20/18
f 19/21/19 20/22/20 21/23/21
f 19/21/19 21/23/21 18/20/18
f 20/22/20 1/1/1 4/4/4
f 20/22/20 4/4/4 21/23/21
f 22/24/22 2/25/23 1/26/24
f 22/24/22 5/27/25 2/25/23
f 22/24/22 7/28/26 5/27/25
f 22/24/22 9/29/27 7/28/26
f 11/30/28 9/29/27 22/24/22
f 22/24/22 13/31/29 11/30/28
f 22/24/22 15/32/30 13/31/29
f 22/24/22 16/33/31 15/32/30
f 22/24/22 19/34/32 16/33/31
f 22/24/22 20/35/33 19/34/32
f 22/24/22 1/26/24 20/35/33
f 4/36/4 3/37/3 23/38/34
f 24/39/35 4/36/4 23/38/34
f 23/38/34 3/37/3 6/40/6
f 23/38/34 6/40/6 25/41/36
f 25/41/36 6/40/6 8/42/8
f 25/41/36 8/42/8 26/43/37
f 26/43/37 8/42/8 10/44/10
f 26/43/37 10/44/10 27/45/38
f 10/44/10 12/46/12 28/47/39
f 10/44/10 28/47/39 29/48/40
f 30/49/41 28/47/39 12/46/12
f 30/50/41 12/51/12 14/52/14
f 31/53/42 30/50/41 14/52/14
f 18/54/18 21/55/21 32/56/43
f 33/57/44 18/54/18 32/56/43
f 21/55/21 4/36/4 24/58/35
f 32/56/43 21/55/21 24/58/35
f 34/59/45 24/39/35 23/38/34
f 34/59/45 23/38/34 35/60/46
f 26/43/37 27/45/38 36/61/47
f 37/62/48 26/43/37 36/61/47
f 28/47/39 38/63/49 29/48/40
f 39/64/50 38/63/49 28/47/39
f 39/64/50 28/47/39 30/49/41
f 30/50/41 31/53/42 40/65/51
f 40/65/51 39/66/50 30/50/41
f 41/67/52 33/57/44 32/56/43
f 41/67/52 32/56/43 42/68/53
f 42/68/53 32/56/43 24/58/35
f 42/68/53 24/58/35 34/69/45
f 43/70/54 34/59/45 35/60/46
f 37/62/48 43/70/54 35/60/46
f 35/60/46 23/38/34 25/41/36
f 37/62/48 35/60/46 25/41/36
f 37/62/48 25/41/36 26/43/37
f 43/70/54 37/62/48 36/61/47
f 43/71/54 36/72/47 38/63/49
f 43/71/54 38/63/49 39/64/50
f 40/65/51 43/73/54 39/66/50
f 41/74/52 43/73/54 40/65/51
f 40/65/51 31/53/42 33/75/44
f 33/75/44 41/74/52 40/65/51
f 31/53/42 14/52/14 17/76/17
f 33/75/44 31/53/42 17/76/17
f 18/54/18 33/75/44 17/76/17
f 43/77/54 41/67/52 42/68/53
f 43/77/54 42/68/53 34/69/45
f 29/48/40 38/63/49 36/72/47
f 36/72/47 27/78/38 29/48/40
f 27/78/38 10/44/10 29/48/40
f 13/15/13 15/17/15 14/16/14
