# Blender 4.1.1
# www.blender.org
o Plane
v 0.000000 1.000000 -0.500000
v 0.000000 1.000000 0.500000
v 0.000000 -0.000000 0.500000
v 0.000000 0.000000 -0.500000
vn 1.0000 -0.0000 -0.0000
vt 0.999900 0.000100
vt 0.000100 0.999900
vt 0.000100 0.000100
vt 0.999900 0.999900
s 1
f 2/1/1 4/2/1 1/3/1
f 2/1/1 3/4/1 4/2/1
o Plane.001
v -0.444740 1.000000 0.228486
v 0.444741 1.000000 -0.228486
v 0.444740 -0.000000 -0.228486
v -0.444741 0.000000 0.228486
vn -0.4570 -0.0000 -0.8895
vt 0.999900 0.000100
vt 0.000100 0.999900
vt 0.000100 0.000100
vt 0.999900 0.999900
s 1
f 6/5/2 8/6/2 5/7/2
f 6/5/2 7/8/2 8/6/2
