# Blender v2.79 (sub 0) OBJ File: ''
# www.blender.org
o pkgrenade
v 0.190364 -0.181510 -0.115400
v 0.079033 -0.191463 -0.121300
v 0.079309 -0.102963 -0.209700
v 0.190626 -0.097410 -0.199400
v 0.079685 0.017736 -0.242000
v 0.190985 0.017389 -0.230200
v 0.080062 0.138536 -0.209700
v 0.191343 0.132289 -0.199400
v 0.080338 0.226935 -0.121300
v 0.191605 0.216388 -0.115400
v 0.080439 0.259335 -0.000500
v 0.191701 0.247188 -0.000500
v 0.080338 0.226935 0.120300
v 0.191605 0.216388 0.114400
v 0.080062 0.138536 0.208700
v 0.191343 0.132289 0.198400
v 0.079685 0.017736 0.241000
v 0.190984 0.017389 0.229200
v 0.079309 -0.102963 0.208700
v 0.190626 -0.097410 0.198400
v 0.079032 -0.191463 0.120300
v 0.190364 -0.181510 0.114400
v 0.078932 -0.223762 -0.000500
v 0.190268 -0.212310 -0.000500
v 0.290956 -0.152123 -0.098200
v 0.291179 -0.080624 -0.169700
v 0.291484 0.017076 -0.195900
v 0.291789 0.114775 -0.169700
v 0.292012 0.186375 -0.098200
v 0.292094 0.212475 -0.000500
v 0.292012 0.186375 0.097200
v 0.291789 0.114775 0.168700
v 0.291484 0.017076 0.194900
v 0.291179 -0.080624 0.168700
v 0.290956 -0.152123 0.097200
v 0.290874 -0.178323 -0.000500
v -0.030316 0.209980 -0.110700
v 0.065635 0.226081 -0.120700
v 0.065360 0.138082 -0.208800
v -0.030569 0.128881 -0.191400
v 0.064985 0.017782 -0.241000
v -0.030914 0.018081 -0.220900
v 0.064610 -0.102417 -0.208800
v -0.031260 -0.092718 -0.191400
v 0.064336 -0.190417 -0.120700
v -0.031513 -0.173718 -0.110700
v 0.064235 -0.222617 -0.000500
v -0.031605 -0.203417 -0.000500
v 0.064336 -0.190417 0.119700
v -0.031513 -0.173718 0.109700
v 0.064610 -0.102417 0.207800
v -0.031260 -0.092718 0.190400
v 0.064985 0.017782 0.240000
v -0.030914 0.018081 0.219900
v 0.065360 0.138082 0.207800
v -0.030569 0.128881 0.190400
v 0.065635 0.226081 0.119700
v -0.030316 0.209980 0.109700
v 0.065735 0.258281 -0.000500
v -0.030223 0.239680 -0.000500
v -0.319014 0.210881 -0.110700
v -0.319267 0.129781 -0.191400
v -0.319613 0.018982 -0.220900
v -0.319959 -0.091817 -0.191400
v -0.320211 -0.172817 -0.110700
v -0.320304 -0.202517 -0.000500
v -0.320211 -0.172817 0.109700
v -0.319959 -0.091817 0.190400
v -0.319613 0.018982 0.219900
v -0.319267 0.129781 0.190400
v -0.319014 0.210881 0.109700
v -0.318922 0.240581 -0.000500
v -0.319233 0.140781 -0.210500
v -0.318955 0.229981 -0.121700
v -0.319613 0.018982 -0.243000
v -0.319993 -0.102817 -0.210500
v -0.320271 -0.191917 -0.121700
v -0.320373 -0.224517 -0.000500
v -0.320271 -0.191917 0.120700
v -0.319993 -0.102817 0.209500
v -0.319613 0.018982 0.242000
v -0.319233 0.140781 0.209500
v -0.318955 0.229981 0.120700
v -0.318853 0.262581 -0.000500
v -0.419554 0.230295 -0.121700
v -0.419833 0.141095 -0.210500
v -0.420212 0.019296 -0.243000
v -0.420592 -0.102504 -0.210500
v -0.420870 -0.191603 -0.121700
v -0.420972 -0.224203 -0.000500
v -0.420870 -0.191603 0.120700
v -0.420592 -0.102504 0.209500
v -0.420213 0.019296 0.242000
v -0.419833 0.141095 0.209500
v -0.419554 0.230295 0.120700
v -0.419453 0.262895 -0.000500
v 0.370900 -0.106073 -0.071500
v 0.371062 -0.054173 -0.123500
v 0.371284 0.016827 -0.142500
v 0.371505 0.087827 -0.123500
v 0.371667 0.139826 -0.071500
v 0.371727 0.158826 -0.000500
v 0.371667 0.139826 0.070500
v 0.371505 0.087827 0.122500
v 0.371284 0.016827 0.141500
v 0.371062 -0.054173 0.122500
v 0.370900 -0.106073 0.070500
v 0.370841 -0.125072 -0.000500
v 0.422182 -0.047932 -0.037800
v 0.422267 -0.020632 -0.065100
v 0.422383 0.016667 -0.075100
v 0.422500 0.054067 -0.065100
v 0.422585 0.081367 -0.037800
v 0.422616 0.091367 -0.000500
v 0.422585 0.081367 0.036800
v 0.422500 0.054067 0.064100
v 0.422383 0.016667 0.074100
v 0.422267 -0.020632 0.064100
v 0.422182 -0.047932 0.036800
v 0.422151 -0.057932 -0.000500
v 0.440083 0.016612 -0.000500
vt 0.614700 0.344000
vt 0.614700 0.281900
vt 0.675900 0.281900
vt 0.675900 0.344000
vt 0.737100 0.281900
vt 0.737100 0.344000
vt 0.002900 0.344000
vt 0.002900 0.281900
vt 0.064100 0.281900
vt 0.064100 0.344000
vt 0.125300 0.281900
vt 0.125300 0.344000
vt 0.186500 0.281900
vt 0.186500 0.344000
vt 0.247700 0.281900
vt 0.247700 0.344000
vt 0.308800 0.281900
vt 0.308800 0.344000
vt 0.370000 0.281900
vt 0.370000 0.344000
vt 0.431200 0.281900
vt 0.431200 0.344000
vt 0.492400 0.281900
vt 0.492400 0.344000
vt 0.553600 0.281900
vt 0.553600 0.344000
vt 0.614700 0.399900
vt 0.675900 0.399900
vt 0.737100 0.399900
vt 0.002900 0.399900
vt 0.064100 0.399900
vt 0.125300 0.399900
vt 0.186500 0.399900
vt 0.247700 0.399900
vt 0.308800 0.399900
vt 0.370000 0.399900
vt 0.431200 0.399900
vt 0.492400 0.399900
vt 0.553600 0.399900
vt 0.125500 0.220400
vt 0.125300 0.273800
vt 0.064100 0.273800
vt 0.064400 0.220400
vt 0.002900 0.273800
vt 0.002900 0.220400
vt 0.737100 0.220400
vt 0.737100 0.273800
vt 0.675900 0.273800
vt 0.675700 0.220400
vt 0.614700 0.273800
vt 0.614500 0.220400
vt 0.553600 0.273800
vt 0.553600 0.220400
vt 0.492400 0.273800
vt 0.492600 0.220400
vt 0.431200 0.273800
vt 0.431500 0.220400
vt 0.370000 0.273800
vt 0.370000 0.220400
vt 0.308800 0.273800
vt 0.308600 0.220400
vt 0.247700 0.273800
vt 0.247400 0.220400
vt 0.186500 0.273800
vt 0.186500 0.220400
vt 0.125500 0.064000
vt 0.064400 0.064000
vt 0.002900 0.064000
vt 0.737100 0.064000
vt 0.675700 0.064000
vt 0.614500 0.064000
vt 0.553600 0.064000
vt 0.492600 0.064000
vt 0.431500 0.064000
vt 0.370000 0.064000
vt 0.308600 0.064000
vt 0.247400 0.064000
vt 0.186500 0.064000
vt 1.114300 0.759700
vt 1.105500 0.775000
vt 1.034200 0.703800
vt 1.049500 0.694900
vt 1.202800 0.783400
vt 1.202800 0.801100
vt 1.291300 0.759700
vt 1.300100 0.775000
vt 1.356100 0.694900
vt 1.371400 0.703800
vt 1.379800 0.606500
vt 1.397400 0.606500
vt 1.356100 0.518000
vt 1.371400 0.509100
vt 1.291300 0.453200
vt 1.300100 0.437900
vt 1.202800 0.429500
vt 1.202800 0.411800
vt 1.114300 0.453200
vt 1.105500 0.437900
vt 1.049500 0.518000
vt 1.034200 0.509100
vt 1.025700 0.606500
vt 1.008200 0.606500
vt 0.125500 0.003600
vt 0.125500 0.059600
vt 0.064300 0.059600
vt 0.064300 0.003600
vt 0.002900 0.059600
vt 0.002900 0.003600
vt 0.737100 0.003600
vt 0.737100 0.059600
vt 0.675700 0.059600
vt 0.675700 0.003600
vt 0.614500 0.059600
vt 0.614500 0.003600
vt 0.553600 0.059600
vt 0.553600 0.003600
vt 0.492600 0.059600
vt 0.492600 0.003600
vt 0.431400 0.059600
vt 0.431400 0.003600
vt 0.370000 0.059600
vt 0.370000 0.003600
vt 0.308600 0.059600
vt 0.308600 0.003600
vt 0.247400 0.059600
vt 0.247400 0.003600
vt 0.186500 0.059600
vt 0.186500 0.003600
vt 0.008200 0.606700
vt 0.034200 0.703700
vt 0.105200 0.774800
vt 0.202200 0.800800
vt 0.034200 0.509700
vt 0.299300 0.774800
vt 0.105200 0.438700
vt 0.370300 0.703700
vt 0.202200 0.412700
vt 0.396300 0.606700
vt 0.370300 0.509700
vt 0.299300 0.438700
vt 0.640100 0.612000
vt 0.675700 0.632500
vt 0.620700 0.687500
vt 0.600200 0.651900
vt 0.545600 0.707600
vt 0.545600 0.666500
vt 0.470500 0.687500
vt 0.491100 0.651900
vt 0.415600 0.632500
vt 0.451100 0.612000
vt 0.395400 0.557400
vt 0.436500 0.557400
vt 0.415600 0.482300
vt 0.451100 0.502900
vt 0.470500 0.427400
vt 0.491100 0.462900
vt 0.545600 0.407200
vt 0.545600 0.448300
vt 0.620700 0.427400
vt 0.600200 0.462900
vt 0.675700 0.482300
vt 0.640100 0.502900
vt 0.695800 0.557400
vt 0.654700 0.557400
vt 0.595300 0.586100
vt 0.574300 0.607100
vt 0.545600 0.614800
vt 0.516900 0.607100
vt 0.495900 0.586100
vt 0.488300 0.557400
vt 0.495900 0.528700
vt 0.516900 0.507700
vt 0.545600 0.500100
vt 0.574300 0.507700
vt 0.595300 0.528700
vt 0.603000 0.557400
vt 0.545600 0.557400
vn 0.2132 -0.8453 -0.4900
vn 0.0134 -0.8659 -0.5000
vn 0.0147 -0.4998 -0.8660
vn 0.2144 -0.4872 -0.8466
vn 0.0164 -0.0000 -0.9999
vn 0.2159 0.0013 -0.9764
vn 0.0181 0.4999 -0.8659
vn 0.2174 0.4893 -0.8446
vn 0.0189 0.8659 -0.4998
vn 0.2185 0.8459 -0.4865
vn 0.0193 0.9998 0.0001
vn 0.2190 0.9757 0.0020
vn 0.0187 0.8657 0.5003
vn 0.2185 0.8439 0.4900
vn 0.0178 0.4997 0.8660
vn 0.2174 0.4858 0.8466
vn 0.0164 -0.0002 0.9999
vn 0.2159 -0.0027 0.9764
vn 0.0148 -0.5000 0.8659
vn 0.2143 -0.4906 0.8446
vn 0.0136 -0.8660 0.4998
vn 0.2132 -0.8473 0.4865
vn 0.0125 -0.9999 -0.0001
vn 0.2129 -0.9771 -0.0020
vn 0.3196 -0.7755 -0.5444
vn 0.3207 -0.3996 -0.8588
vn 0.3223 0.0832 -0.9430
vn 0.3237 0.5434 -0.7745
vn 0.3247 0.8577 -0.3986
vn 0.3249 0.9420 0.0842
vn 0.3244 0.7735 0.5444
vn 0.3232 0.3976 0.8588
vn 0.3217 -0.0852 0.9430
vn 0.3203 -0.5454 0.7745
vn 0.3193 -0.8598 0.3986
vn 0.3191 -0.9440 -0.0842
vn -0.0968 0.8617 -0.4981
vn -0.1317 0.8582 -0.4961
vn -0.1354 0.4947 -0.8584
vn -0.1005 0.4970 -0.8619
vn -0.1389 -0.0006 -0.9903
vn -0.1026 0.0010 -0.9947
vn -0.1398 -0.4953 -0.8574
vn -0.1023 -0.4952 -0.8627
vn -0.1386 -0.8577 -0.4951
vn -0.1010 -0.8603 -0.4997
vn -0.1368 -0.9906 0.0004
vn -0.1006 -0.9949 -0.0010
vn -0.1372 -0.8573 0.4962
vn -0.1022 -0.8611 0.4981
vn -0.1385 -0.4939 0.8584
vn -0.1037 -0.4964 0.8619
vn -0.1389 0.0014 0.9903
vn -0.1026 -0.0004 0.9947
vn -0.1367 0.4961 0.8574
vn -0.0992 0.4958 0.8628
vn -0.1328 0.8586 0.4951
vn -0.0956 0.8609 0.4997
vn -0.1306 0.9914 -0.0004
vn -0.0943 0.9955 0.0010
vn 0.0025 0.8169 -0.5768
vn 0.0013 0.4194 -0.9078
vn -0.0003 -0.0885 -0.9961
vn -0.0018 -0.5733 -0.8193
vn -0.0028 -0.9064 -0.4225
vn -0.0031 -0.9960 0.0894
vn -0.0025 -0.8169 0.5768
vn -0.0013 -0.4194 0.9078
vn 0.0003 0.0885 0.9961
vn 0.0018 0.5733 0.8193
vn 0.0028 0.9064 0.4225
vn 0.0031 0.9960 -0.0894
vn 1.0000 -0.0031 -0.0000
vn 0.0025 0.8170 -0.5766
vn 0.0028 0.9064 -0.4223
vn 0.0018 0.5735 -0.8192
vn 0.0013 0.4196 -0.9077
vn 0.0002 0.0886 -0.9961
vn -0.0002 -0.0886 -0.9961
vn -0.0013 -0.4196 -0.9077
vn -0.0018 -0.5735 -0.8192
vn -0.0025 -0.8170 -0.5766
vn -0.0028 -0.9064 -0.4223
vn -0.0031 -0.9960 -0.0894
vn -0.0028 -0.9064 0.4223
vn -0.0025 -0.8170 0.5766
vn -0.0018 -0.5735 0.8192
vn -0.0013 -0.4196 0.9077
vn -0.0004 -0.0886 0.9961
vn 0.0003 0.0886 0.9961
vn 0.0013 0.4196 0.9077
vn 0.0018 0.5735 0.8192
vn 0.0026 0.8170 0.5766
vn 0.0028 0.9064 0.4223
vn 0.0032 0.9960 0.0894
vn -1.0000 0.0031 0.0000
vn 0.6844 -0.6270 -0.3721
vn 0.5529 -0.7562 -0.3501
vn 0.5537 -0.4800 -0.6804
vn 0.6852 -0.3572 -0.6347
vn 0.5550 -0.0757 -0.8284
vn 0.6864 0.0077 -0.7272
vn 0.5563 0.3484 -0.7544
vn 0.6876 0.3700 -0.6248
vn 0.5573 0.6787 -0.4783
vn 0.6883 0.6325 -0.3551
vn 0.5578 0.8267 -0.0740
vn 0.6886 0.7251 0.0098
vn 0.5576 0.7527 0.3501
vn 0.6883 0.6227 0.3721
vn 0.5567 0.4766 0.6804
vn 0.6875 0.3529 0.6347
vn 0.5554 0.0723 0.8284
vn 0.6863 -0.0119 0.7272
vn 0.5541 -0.3518 0.7544
vn 0.6852 -0.3742 0.6249
vn 0.5531 -0.6821 0.4783
vn 0.6844 -0.6368 0.3551
vn 0.5526 -0.8301 0.0740
vn 0.6841 -0.7293 -0.0098
vn 0.8842 -0.3878 -0.2603
vn 0.8848 -0.2060 -0.4180
vn 0.8855 0.0303 -0.4636
vn 0.8863 0.2575 -0.3850
vn 0.8867 0.4152 -0.2032
vn 0.8869 0.4608 0.0330
vn 0.8866 0.3822 0.2603
vn 0.8861 0.2004 0.4180
vn 0.8853 -0.0358 0.4636
vn 0.8846 -0.2631 0.3850
vn 0.8841 -0.4208 0.2032
vn 0.8840 -0.4664 -0.0330
vn 1.0000 -0.0033 -0.0000
s 1
f 1/1/1 2/2/2 3/3/3
f 1/1/1 3/3/3 4/4/4
f 4/4/4 3/3/3 5/5/5
f 4/4/4 5/5/5 6/6/6
f 6/7/6 5/8/5 7/9/7
f 6/7/6 7/9/7 8/10/8
f 8/10/8 7/9/7 9/11/9
f 8/10/8 9/11/9 10/12/10
f 10/12/10 9/11/9 11/13/11
f 10/12/10 11/13/11 12/14/12
f 12/14/12 11/13/11 13/15/13
f 12/14/12 13/15/13 14/16/14
f 14/16/14 13/15/13 15/17/15
f 14/16/14 15/17/15 16/18/16
f 16/18/16 15/17/15 17/19/17
f 16/18/16 17/19/17 18/20/18
f 18/20/18 17/19/17 19/21/19
f 18/20/18 19/21/19 20/22/20
f 20/22/20 19/21/19 21/23/21
f 20/22/20 21/23/21 22/24/22
f 22/24/22 21/23/21 23/25/23
f 22/24/22 23/25/23 24/26/24
f 24/26/24 23/25/23 2/2/2
f 24/26/24 2/2/2 1/1/1
f 25/27/25 1/1/1 4/4/4
f 25/27/25 4/4/4 26/28/26
f 26/28/26 4/4/4 6/6/6
f 26/28/26 6/6/6 27/29/27
f 27/30/27 6/7/6 8/10/8
f 27/30/27 8/10/8 28/31/28
f 28/31/28 8/10/8 10/12/10
f 28/31/28 10/12/10 29/32/29
f 29/32/29 10/12/10 12/14/12
f 29/32/29 12/14/12 30/33/30
f 30/33/30 12/14/12 14/16/14
f 30/33/30 14/16/14 31/34/31
f 31/34/31 14/16/14 16/18/16
f 31/34/31 16/18/16 32/35/32
f 32/35/32 16/18/16 18/20/18
f 32/35/32 18/20/18 33/36/33
f 33/36/33 18/20/18 20/22/20
f 33/36/33 20/22/20 34/37/34
f 34/37/34 20/22/20 22/24/22
f 34/37/34 22/24/22 35/38/35
f 35/38/35 22/24/22 24/26/24
f 35/38/35 24/26/24 36/39/36
f 36/39/36 24/26/24 1/1/1
f 36/39/36 1/1/1 25/27/25
f 37/40/37 38/41/38 39/42/39
f 37/40/37 39/42/39 40/43/40
f 40/43/40 39/42/39 41/44/41
f 40/43/40 41/44/41 42/45/42
f 42/46/42 41/47/41 43/48/43
f 42/46/42 43/48/43 44/49/44
f 44/49/44 43/48/43 45/50/45
f 44/49/44 45/50/45 46/51/46
f 46/51/46 45/50/45 47/52/47
f 46/51/46 47/52/47 48/53/48
f 48/53/48 47/52/47 49/54/49
f 48/53/48 49/54/49 50/55/50
f 50/55/50 49/54/49 51/56/51
f 50/55/50 51/56/51 52/57/52
f 52/57/52 51/56/51 53/58/53
f 52/57/52 53/58/53 54/59/54
f 54/59/54 53/58/53 55/60/55
f 54/59/54 55/60/55 56/61/56
f 56/61/56 55/60/55 57/62/57
f 56/61/56 57/62/57 58/63/58
f 58/63/58 57/62/57 59/64/59
f 58/63/58 59/64/59 60/65/60
f 60/65/60 59/64/59 38/41/38
f 60/65/60 38/41/38 37/40/37
f 61/66/61 37/40/37 40/43/40
f 61/66/61 40/43/40 62/67/62
f 62/67/62 40/43/40 42/45/42
f 62/67/62 42/45/42 63/68/63
f 63/69/63 42/46/42 44/49/44
f 63/69/63 44/49/44 64/70/64
f 64/70/64 44/49/44 46/51/46
f 64/70/64 46/51/46 65/71/65
f 65/71/65 46/51/46 48/53/48
f 65/71/65 48/53/48 66/72/66
f 66/72/66 48/53/48 50/55/50
f 66/72/66 50/55/50 67/73/67
f 67/73/67 50/55/50 52/57/52
f 67/73/67 52/57/52 68/74/68
f 68/74/68 52/57/52 54/59/54
f 68/74/68 54/59/54 69/75/69
f 69/75/69 54/59/54 56/61/56
f 69/75/69 56/61/56 70/76/70
f 70/76/70 56/61/56 58/63/58
f 70/76/70 58/63/58 71/77/71
f 71/77/71 58/63/58 60/65/60
f 71/77/71 60/65/60 72/78/72
f 72/78/72 60/65/60 37/40/37
f 72/78/72 37/40/37 61/66/61
f 47/52/47 23/25/23 21/23/21
f 47/52/47 21/23/21 49/54/49
f 45/50/45 2/2/2 23/25/23
f 45/50/45 23/25/23 47/52/47
f 43/48/43 3/3/3 2/2/2
f 43/48/43 2/2/2 45/50/45
f 41/47/41 5/5/5 3/3/3
f 41/47/41 3/3/3 43/48/43
f 39/42/39 7/9/7 5/8/5
f 39/42/39 5/8/5 41/44/41
f 38/41/38 9/11/9 7/9/7
f 38/41/38 7/9/7 39/42/39
f 59/64/59 11/13/11 9/11/9
f 59/64/59 9/11/9 38/41/38
f 57/62/57 13/15/13 11/13/11
f 57/62/57 11/13/11 59/64/59
f 55/60/55 15/17/15 13/15/13
f 55/60/55 13/15/13 57/62/57
f 53/58/53 17/19/17 15/17/15
f 53/58/53 15/17/15 55/60/55
f 51/56/51 19/21/19 17/19/17
f 51/56/51 17/19/17 53/58/53
f 49/54/49 21/23/21 19/21/19
f 49/54/49 19/21/19 51/56/51
f 62/79/73 73/80/73 74/81/73
f 74/81/73 61/82/73 62/79/73
f 63/83/73 75/84/73 73/80/73
f 73/80/73 62/79/73 63/83/73
f 64/85/73 76/86/73 75/84/73
f 75/84/73 63/83/73 64/85/73
f 65/87/73 77/88/73 76/86/73
f 76/86/73 64/85/73 65/87/73
f 66/89/73 78/90/73 77/88/73
f 77/88/73 65/87/73 66/89/73
f 67/91/73 79/92/73 78/90/73
f 78/90/73 66/89/73 67/91/73
f 68/93/73 80/94/73 79/92/73
f 79/92/73 67/91/73 68/93/73
f 69/95/73 81/96/73 80/94/73
f 80/94/73 68/93/73 69/95/73
f 70/97/73 82/98/73 81/96/73
f 81/96/73 69/95/73 70/97/73
f 71/99/73 83/100/73 82/98/73
f 82/98/73 70/97/73 71/99/73
f 72/101/73 84/102/73 83/100/73
f 83/100/73 71/99/73 72/101/73
f 61/82/73 74/81/73 84/102/73
f 84/102/73 72/101/73 61/82/73
f 85/103/74 74/104/75 73/105/76
f 85/103/74 73/105/76 86/106/77
f 86/106/77 73/105/76 75/107/78
f 86/106/77 75/107/78 87/108/79
f 87/109/79 75/110/78 76/111/80
f 87/109/79 76/111/80 88/112/81
f 88/112/81 76/111/80 77/113/82
f 88/112/81 77/113/82 89/114/83
f 89/114/83 77/113/82 78/115/84
f 89/114/83 78/115/84 90/116/66
f 90/116/66 78/115/84 79/117/85
f 90/116/66 79/117/85 91/118/86
f 91/118/86 79/117/85 80/119/87
f 91/118/86 80/119/87 92/120/88
f 92/120/88 80/119/87 81/121/89
f 92/120/88 81/121/89 93/122/90
f 93/122/90 81/121/89 82/123/91
f 93/122/90 82/123/91 94/124/92
f 94/124/92 82/123/91 83/125/93
f 94/124/92 83/125/93 95/126/94
f 95/126/94 83/125/93 84/127/95
f 95/126/94 84/127/95 96/128/72
f 96/128/72 84/127/95 74/104/75
f 96/128/72 74/104/75 85/103/74
f 96/129/96 85/130/96 86/131/96
f 96/129/96 86/131/96 87/132/96
f 95/133/96 96/129/96 87/132/96
f 95/133/96 87/132/96 88/134/96
f 94/135/96 95/133/96 88/134/96
f 94/135/96 88/134/96 89/136/96
f 93/137/96 94/135/96 89/136/96
f 93/137/96 89/136/96 90/138/96
f 93/137/96 90/138/96 91/139/96
f 93/137/96 91/139/96 92/140/96
f 97/141/97 25/142/98 26/143/99
f 97/141/97 26/143/99 98/144/100
f 98/144/100 26/143/99 27/145/101
f 98/144/100 27/145/101 99/146/102
f 99/146/102 27/145/101 28/147/103
f 99/146/102 28/147/103 100/148/104
f 100/148/104 28/147/103 29/149/105
f 100/148/104 29/149/105 101/150/106
f 101/150/106 29/149/105 30/151/107
f 101/150/106 30/151/107 102/152/108
f 102/152/108 30/151/107 31/153/109
f 102/152/108 31/153/109 103/154/110
f 103/154/110 31/153/109 32/155/111
f 103/154/110 32/155/111 104/156/112
f 104/156/112 32/155/111 33/157/113
f 104/156/112 33/157/113 105/158/114
f 105/158/114 33/157/113 34/159/115
f 105/158/114 34/159/115 106/160/116
f 106/160/116 34/159/115 35/161/117
f 106/160/116 35/161/117 107/162/118
f 107/162/118 35/161/117 36/163/119
f 107/162/118 36/163/119 108/164/120
f 108/164/120 36/163/119 25/142/98
f 108/164/120 25/142/98 97/141/97
f 109/165/121 97/141/97 98/144/100
f 109/165/121 98/144/100 110/166/122
f 110/166/122 98/144/100 99/146/102
f 110/166/122 99/146/102 111/167/123
f 111/167/123 99/146/102 100/148/104
f 111/167/123 100/148/104 112/168/124
f 112/168/124 100/148/104 101/150/106
f 112/168/124 101/150/106 113/169/125
f 113/169/125 101/150/106 102/152/108
f 113/169/125 102/152/108 114/170/126
f 114/170/126 102/152/108 103/154/110
f 114/170/126 103/154/110 115/171/127
f 115/171/127 103/154/110 104/156/112
f 115/171/127 104/156/112 116/172/128
f 116/172/128 104/156/112 105/158/114
f 116/172/128 105/158/114 117/173/129
f 117/173/129 105/158/114 106/160/116
f 117/173/129 106/160/116 118/174/130
f 118/174/130 106/160/116 107/162/118
f 118/174/130 107/162/118 119/175/131
f 119/175/131 107/162/118 108/164/120
f 119/175/131 108/164/120 120/176/132
f 120/176/132 108/164/120 97/141/97
f 120/176/132 97/141/97 109/165/121
f 121/177/133 109/165/121 110/166/122
f 121/177/133 110/166/122 111/167/123
f 121/177/133 111/167/123 112/168/124
f 121/177/133 112/168/124 113/169/125
f 121/177/133 113/169/125 114/170/126
f 121/177/133 114/170/126 115/171/127
f 121/177/133 115/171/127 116/172/128
f 121/177/133 116/172/128 117/173/129
f 121/177/133 117/173/129 118/174/130
f 121/177/133 118/174/130 119/175/131
f 121/177/133 119/175/131 120/176/132
f 121/177/133 120/176/132 109/165/121
