# Blender v2.81 (sub 16) OBJ File: 'bolt.blend'
# www.blender.org
o Cylinder_Cylinder.001
v 19.032578 0.989999 0.000000
v 13.520000 0.794909 -0.980785
v 13.521832 1.071398 -1.001027
v 13.521833 0.501540 -0.877547
v -26.350439 1.015175 -1.011830
v -26.350439 0.532170 -0.893903
v -26.350439 0.162681 -0.583076
v 13.520000 0.282893 -0.707107
v 13.521833 0.096322 -0.458280
v -26.350439 -0.007609 -0.115954
v 13.521833 -0.011027 -0.081400
v -26.350439 0.023956 0.274641
v 13.521833 0.034021 0.307873
v -26.350439 0.158531 0.555570
v 13.521833 0.224608 0.650275
v -26.350439 0.339346 0.765062
v 13.521833 0.531720 0.893678
v -26.350439 0.607317 0.923880
v -26.350439 0.964825 1.011830
v 13.521833 0.908600 1.001027
v 13.520000 1.185090 0.980785
v -26.350439 1.447831 0.893902
v 13.521833 1.478459 0.877546
v -26.350439 1.755063 0.650654
v 13.521832 1.777100 0.623822
v -26.350439 1.945820 0.308349
v 13.521833 1.955912 0.275126
v -26.350439 1.987300 -0.172707
v 13.521833 1.987672 -0.115456
v 13.520000 1.913878 -0.382684
v -26.350439 1.777408 -0.623426
v 13.521833 1.755390 -0.650276
v -26.350439 1.478895 -0.877298
v 13.521833 1.448278 -0.893679
vt 0.249913 0.878543
vt 0.261199 0.176872
vt 0.215350 0.176712
vt 0.311098 0.176143
vt 0.022683 0.123193
vt 0.073525 0.158715
vt 0.152191 0.175943
vt 0.369198 0.176579
vt 0.414636 0.176314
vt 0.242272 0.174262
vt 0.460911 0.176114
vt 0.305868 0.157534
vt 0.415577 0.176490
vt 0.345181 0.136847
vt 0.368711 0.176327
vt 0.366461 0.114173
vt 0.816890 0.999657
vt 0.805523 0.001111
vt 0.825003 0.001111
vt 0.311259 0.176435
vt 0.376150 0.086649
vt 0.789262 0.999657
vt 0.783560 0.001111
vt 0.361605 0.055147
vt 0.261607 0.176546
vt 0.943666 0.001111
vt 0.972975 0.001111
vt 0.963147 0.999657
vt 0.941219 0.999657
vt 0.214670 0.176386
vt 0.310761 0.019624
vt 0.156076 0.177116
vt 0.248330 0.003538
vt 0.104146 0.177266
vt 0.177344 0.000487
vt 0.053479 0.177397
vt 0.095155 0.015747
vt 0.103468 0.177116
vt 0.155942 0.177494
vt 0.032136 0.047941
vt 0.215855 0.176932
vt 0.010213 0.081354
vt 0.261351 0.176824
vt 0.976961 0.999657
vt 0.909700 0.001111
vt 0.921704 0.999657
vt 0.874595 0.001111
vt 0.899776 0.999657
vt 0.872147 0.999657
vt 0.846966 0.001111
vt 0.844519 0.999657
vt 0.757743 0.001111
vt 0.761633 0.999657
vt 0.722637 0.001111
vt 0.742117 0.999657
vt 0.720190 0.999657
vt 0.695008 0.001111
vt 0.692562 0.999657
vt 0.667380 0.001111
vt 0.664933 0.999657
vt 0.633415 0.001111
vt 0.637305 0.999657
vt 0.598308 0.001111
vt 0.617789 0.999657
vt 0.595861 0.999657
vt 0.570680 0.001111
vt 0.568232 0.999657
vt 0.543051 0.001111
vt 0.540604 0.999657
vn 0.1772 -0.0730 -0.9815
vn 0.1768 -0.3257 -0.9288
vn -1.0000 -0.0000 0.0000
vn 0.1772 -0.6060 -0.7755
vn 0.1768 -0.7869 -0.5913
vn 0.1760 -0.9467 -0.2697
vn 0.1760 -0.9779 0.1132
vn 0.1760 -0.8601 0.4788
vn -0.0003 -0.7570 0.6534
vn 0.1760 -0.6114 0.7715
vn -0.0003 -0.5099 0.8603
vn 0.1760 -0.2697 0.9467
vn -0.0003 -0.2740 -0.9617
vn 0.1772 0.0730 0.9815
vn 0.1768 0.3257 0.9288
vn 0.1760 0.6374 0.7502
vn 0.1760 0.8759 0.4492
vn 0.1760 0.9812 0.0798
vn 0.1772 0.9484 -0.2631
vn 0.1768 0.8474 -0.5007
vn 0.1760 0.6114 -0.7715
vn 0.1760 0.2697 -0.9467
vn 0.0004 -0.0730 -0.9973
vn -0.0003 -0.6333 -0.7739
vn -0.0002 -0.9499 -0.3125
vn 0.0005 -0.8001 -0.5999
vn -0.0000 -0.9952 0.0978
vn 0.0001 -0.8866 0.4625
vn 0.0001 -0.2570 0.9664
vn 0.0005 -0.6211 0.7837
vn -0.0003 0.2740 0.9617
vn 0.0004 0.0730 0.9973
vn -0.0000 0.6342 0.7732
vn -0.0000 0.8818 0.4716
vn -0.0002 0.9965 0.0837
vn -0.0003 0.8898 -0.4563
vn 0.0004 0.9639 -0.2662
vn -0.0000 0.6346 -0.7729
vn -0.0002 0.2765 -0.9610
s 1
f 1/1/1 2/2/1 3/3/1
f 1/1/2 4/4/2 2/2/2
f 5/5/3 6/6/3 7/7/3
f 1/1/4 8/8/4 4/4/4
f 1/1/5 9/9/5 8/8/5
f 5/5/3 7/7/3 10/10/3
f 1/1/6 11/11/6 9/9/6
f 5/5/3 10/10/3 12/12/3
f 1/1/7 13/13/7 11/11/7
f 5/5/3 12/12/3 14/14/3
f 1/1/8 15/15/8 13/13/8
f 5/5/3 14/14/3 16/16/3
f 15/17/9 16/18/9 14/19/9
f 1/1/10 17/20/10 15/15/10
f 5/5/3 16/16/3 18/21/3
f 17/22/11 18/23/11 16/18/11
f 5/5/3 18/21/3 19/24/3
f 1/1/12 20/25/12 17/20/12
f 6/26/13 5/27/13 2/28/13 4/29/13
f 1/1/14 21/30/14 20/25/14
f 5/5/3 19/24/3 22/31/3
f 1/1/15 23/32/15 21/30/15
f 5/5/3 22/31/3 24/33/3
f 1/1/16 25/34/16 23/32/16
f 5/5/3 24/33/3 26/35/3
f 1/1/17 27/36/17 25/34/17
f 5/5/3 26/35/3 28/37/3
f 1/1/18 29/38/18 27/36/18
f 1/1/19 30/39/19 29/38/19
f 5/5/3 28/37/3 31/40/3
f 1/1/20 32/41/20 30/39/20
f 5/5/3 31/40/3 33/42/3
f 1/1/21 34/43/21 32/41/21
f 1/1/22 3/3/22 34/43/22
f 3/44/23 2/28/23 5/27/23
f 7/45/24 6/26/24 4/29/24 8/46/24
f 10/47/25 7/45/25 9/48/25 11/49/25
f 8/46/26 9/48/26 7/45/26
f 12/50/27 10/47/27 11/49/27 13/51/27
f 14/19/28 12/50/28 13/51/28 15/17/28
f 19/52/29 18/23/29 17/22/29 20/53/29
f 15/17/30 17/22/30 16/18/30
f 22/54/31 19/52/31 21/55/31 23/56/31
f 20/53/32 21/55/32 19/52/32
f 24/57/33 22/54/33 23/56/33 25/58/33
f 26/59/34 24/57/34 25/58/34 27/60/34
f 28/61/35 26/59/35 27/60/35 29/62/35
f 31/63/36 28/61/36 30/64/36 32/65/36
f 29/62/37 30/64/37 28/61/37
f 33/66/38 31/63/38 32/65/38 34/67/38
f 5/68/39 33/66/39 34/67/39 3/69/39
