# Blender v2.81 (sub 16) OBJ File: ''
# www.blender.org
o Plane
v -8.000000 0.000000 8.000000
v 8.000000 0.000000 8.000000
v -8.000000 0.000000 -8.000000
v 8.000000 0.000000 -8.000000
vt 0.000000 0.000000
vt 1.000000 0.000000
vt 1.000000 1.000000
vt 0.000000 1.000000
vn 0.0000 1.0000 0.0000
usemtl pickup_ring.png
s off
f 1/1/1 2/2/1 4/3/1 3/4/1
o Cylinder.001
v 0.000000 0.010000 -7.480000
v 0.000000 12.790000 -7.480000
v 1.459276 0.010000 -7.336274
v 1.459276 12.790000 -7.336274
v 2.862472 0.010000 -6.910619
v 2.862472 12.790000 -6.910619
v 4.155665 0.010000 -6.219393
v 4.155665 12.790000 -6.219393
v 5.289159 0.010000 -5.289159
v 5.289159 12.790000 -5.289159
v 6.219393 0.010000 -4.155665
v 6.219393 12.790000 -4.155665
v 6.910619 0.010000 -2.862472
v 6.910619 12.790000 -2.862472
v 7.336274 0.010000 -1.459276
v 7.336274 12.790000 -1.459276
v 7.480000 0.010000 -0.000001
v 7.480000 12.790000 -0.000001
v 7.336274 0.010000 1.459275
v 7.336274 12.790000 1.459275
v 6.910619 0.010000 2.862471
v 6.910619 12.790000 2.862471
v 6.219393 0.010000 4.155665
v 6.219393 12.790000 4.155665
v 5.289159 0.010000 5.289159
v 5.289159 12.790000 5.289159
v 4.155665 0.010000 6.219393
v 4.155665 12.790000 6.219393
v 2.862471 0.010000 6.910620
v 2.862471 12.790000 6.910620
v 1.459274 0.010000 7.336274
v 1.459274 12.790000 7.336274
v -0.000002 0.010000 7.480000
v -0.000002 12.790000 7.480000
v -1.459279 0.010000 7.336273
v -1.459279 12.790000 7.336273
v -2.862475 0.010000 6.910617
v -2.862475 12.790000 6.910617
v -4.155669 0.010000 6.219390
v -4.155669 12.790000 6.219390
v -5.289162 0.010000 5.289155
v -5.289162 12.790000 5.289155
v -6.219396 0.010000 4.155661
v -6.219396 12.790000 4.155661
v -6.910621 0.010000 2.862467
v -6.910621 12.790000 2.862467
v -7.336275 0.010000 1.459269
v -7.336275 12.790000 1.459269
v -7.480000 0.010000 -0.000007
v -7.480000 12.790000 -0.000007
v -7.336272 0.010000 -1.459283
v -7.336272 12.790000 -1.459283
v -6.910615 0.010000 -2.862480
v -6.910615 12.790000 -2.862480
v -6.219388 0.010000 -4.155673
v -6.219388 12.790000 -4.155673
v -5.289152 0.010000 -5.289165
v -5.289152 12.790000 -5.289165
v -4.155657 0.010000 -6.219398
v -4.155657 12.790000 -6.219398
v -2.862462 0.010000 -6.910623
v -2.862462 12.790000 -6.910623
v -1.459264 0.010000 -7.336276
v -1.459264 12.790000 -7.336276
vt 2.818465 0.000000
vt 2.818465 0.986328
vt 2.673561 0.986328
vt 2.673561 0.000000
vt 2.528657 0.986328
vt 2.528657 0.000000
vt 2.383752 0.986328
vt 2.383752 0.000000
vt 2.238849 0.986328
vt 2.238849 0.000000
vt 2.093945 0.986328
vt 2.093945 0.000000
vt 1.949041 0.986328
vt 1.949041 0.000000
vt 1.804136 0.986328
vt 1.804136 0.000000
vt 1.659232 0.986328
vt 1.659232 0.000000
vt 1.514328 0.986328
vt 1.514328 0.000000
vt 1.369424 0.986328
vt 1.369424 0.000000
vt 1.224520 0.986328
vt 1.224520 0.000000
vt 1.079616 0.986328
vt 1.079616 0.000000
vt 0.934712 0.986328
vt 0.934712 0.000000
vt 0.789808 0.986328
vt 0.789808 0.000000
vt 0.644904 0.986328
vt 0.644904 0.000000
vt 0.500000 0.986328
vt 0.500000 0.000000
vt 0.355096 0.986328
vt 0.355096 0.000000
vt 0.210192 0.986328
vt 0.210192 0.000000
vt 0.065288 0.986328
vt 0.065288 0.000000
vt -0.079616 0.986328
vt -0.079616 0.000000
vt -0.224520 0.986328
vt -0.224520 0.000000
vt -0.369424 0.986328
vt -0.369424 0.000000
vt -0.514328 0.986328
vt -0.514328 0.000000
vt -0.659232 0.986328
vt -0.659232 0.000000
vt -0.804136 0.986328
vt -0.804136 0.000000
vt -0.949041 0.986328
vt -0.949041 0.000000
vt -1.093945 0.986328
vt -1.093945 0.000000
vt -1.238849 0.986328
vt -1.238849 0.000000
vt -1.383753 0.986328
vt -1.383753 0.000000
vt -1.528657 0.986328
vt -1.528657 0.000000
vt -1.673561 0.986328
vt -1.673561 0.000000
vt -1.818465 0.986328
vt -1.818465 0.000000
vn 0.0980 0.0000 -0.9952
vn 0.2903 0.0000 -0.9569
vn 0.4714 0.0000 -0.8819
vn 0.6344 0.0000 -0.7730
vn 0.7730 0.0000 -0.6344
vn 0.8819 0.0000 -0.4714
vn 0.9569 0.0000 -0.2903
vn 0.9952 0.0000 -0.0980
vn 0.9952 0.0000 0.0980
vn 0.9569 0.0000 0.2903
vn 0.8819 0.0000 0.4714
vn 0.7730 0.0000 0.6344
vn 0.6344 0.0000 0.7730
vn 0.4714 0.0000 0.8819
vn 0.2903 0.0000 0.9569
vn 0.0980 0.0000 0.9952
vn -0.0980 0.0000 0.9952
vn -0.2903 0.0000 0.9569
vn -0.4714 0.0000 0.8819
vn -0.6344 0.0000 0.7730
vn -0.7730 0.0000 0.6344
vn -0.8819 0.0000 0.4714
vn -0.9569 0.0000 0.2903
vn -0.9952 0.0000 0.0980
vn -0.9952 0.0000 -0.0980
vn -0.9569 0.0000 -0.2903
vn -0.8819 0.0000 -0.4714
vn -0.7730 0.0000 -0.6344
vn -0.6344 0.0000 -0.7730
vn -0.4714 0.0000 -0.8819
vn -0.2903 0.0000 -0.9569
vn -0.0980 0.0000 -0.9952
usemtl pickup_ringwall.png
s off
f 5/5/2 6/6/2 8/7/2 7/8/2
f 7/8/3 8/7/3 10/9/3 9/10/3
f 9/10/4 10/9/4 12/11/4 11/12/4
f 11/12/5 12/11/5 14/13/5 13/14/5
f 13/14/6 14/13/6 16/15/6 15/16/6
f 15/16/7 16/15/7 18/17/7 17/18/7
f 17/18/8 18/17/8 20/19/8 19/20/8
f 19/20/9 20/19/9 22/21/9 21/22/9
f 21/22/10 22/21/10 24/23/10 23/24/10
f 23/24/11 24/23/11 26/25/11 25/26/11
f 25/26/12 26/25/12 28/27/12 27/28/12
f 27/28/13 28/27/13 30/29/13 29/30/13
f 29/30/14 30/29/14 32/31/14 31/32/14
f 31/32/15 32/31/15 34/33/15 33/34/15
f 33/34/16 34/33/16 36/35/16 35/36/16
f 35/36/17 36/35/17 38/37/17 37/38/17
f 37/38/18 38/37/18 40/39/18 39/40/18
f 39/40/19 40/39/19 42/41/19 41/42/19
f 41/42/20 42/41/20 44/43/20 43/44/20
f 43/44/21 44/43/21 46/45/21 45/46/21
f 45/46/22 46/45/22 48/47/22 47/48/22
f 47/48/23 48/47/23 50/49/23 49/50/23
f 49/50/24 50/49/24 52/51/24 51/52/24
f 51/52/25 52/51/25 54/53/25 53/54/25
f 53/54/26 54/53/26 56/55/26 55/56/26
f 55/56/27 56/55/27 58/57/27 57/58/27
f 57/58/28 58/57/28 60/59/28 59/60/28
f 59/60/29 60/59/29 62/61/29 61/62/29
f 61/62/30 62/61/30 64/63/30 63/64/30
f 63/64/31 64/63/31 66/65/31 65/66/31
f 65/66/32 66/65/32 68/67/32 67/68/32
f 67/68/33 68/67/33 6/69/33 5/70/33
